<?xml version="1.0" encoding="UTF-8" standalone="no"?>
<!-- Created with Inkscape (http://www.inkscape.org/) -->

<svg
   width="16.933332mm"
   height="16.933332mm"
   viewBox="0 0 16.933333 16.933333"
   version="1.1"
   id="svg5"
   inkscape:version="1.1 (c68e22c387, 2021-05-23)"
   sodipodi:docname="logo.svg"
   xmlns:inkscape="http://www.inkscape.org/namespaces/inkscape"
   xmlns:sodipodi="http://sodipodi.sourceforge.net/DTD/sodipodi-0.dtd"
   xmlns="http://www.w3.org/2000/svg"
   xmlns:svg="http://www.w3.org/2000/svg">
  <sodipodi:namedview
     id="namedview7"
     pagecolor="#ffffff"
     bordercolor="#666666"
     borderopacity="1.0"
     inkscape:pageshadow="2"
     inkscape:pageopacity="0.0"
     inkscape:pagecheckerboard="0"
     inkscape:document-units="mm"
     showgrid="false"
     fit-margin-top="0"
     fit-margin-left="0"
     fit-margin-right="0"
     fit-margin-bottom="0"
     inkscape:zoom="8.7988368"
     inkscape:cx="62.224134"
     inkscape:cy="44.039912"
     inkscape:window-width="2560"
     inkscape:window-height="1377"
     inkscape:window-x="1912"
     inkscape:window-y="-8"
     inkscape:window-maximized="1"
     inkscape:current-layer="layer1" />
  <defs
     id="defs2" />
  <g
     inkscape:label="Layer 1"
     inkscape:groupmode="layer"
     id="layer1"
     transform="translate(63.958786,25.175262)">
    <g
       id="g1525"
       transform="matrix(0.04880938,0,0,0.04880938,-60.836997,-23.946473)">
      <circle
         style="fill:#f4c329;fill-opacity:1;fill-rule:evenodd;stroke-width:0.222871"
         id="path527"
         cx="109.50513"
         cy="148.28865"
         r="173.46391" />
      <g
         style="overflow:visible;fill:#402e32;fill-opacity:1"
         id="g163"
         transform="matrix(0.25998178,0,0,0.25998178,-6.4291513,39.400147)">
        <path
           d="m 251.99,369.532 c -3.653,0 -6.615,2.962 -6.615,6.615 0,3.653 2.962,6.615 6.615,6.615 3.653,0 6.615,-2.962 6.615,-6.615 0,-3.653 -2.961,-6.615 -6.615,-6.615 z m 0,18.772 c -1.548,0 -2.804,1.256 -2.804,2.805 0,1.548 1.255,2.804 2.804,2.804 1.549,0 2.804,-1.256 2.804,-2.804 0,-1.549 -1.255,-2.805 -2.804,-2.805 z m 7.431,8.607 v 22.711 c 6.642,-1.127 12.776,-3.74 18.053,-7.483 L 261.415,396.08 c -0.648,0.307 -1.312,0.587 -1.994,0.831 z m 12.505,-11.337 16.058,16.058 c 3.744,-5.276 6.354,-11.413 7.482,-18.055 h -22.713 c -0.245,0.682 -0.52,1.349 -0.827,1.997 z m -0.002,-18.852 c 0.307,0.648 0.585,1.313 0.83,1.995 h 22.712 c -1.127,-6.642 -3.74,-12.776 -7.483,-18.054 z m -29.358,-10.507 c 0.649,-0.308 1.313,-0.587 1.995,-0.831 v -22.711 c -6.642,1.127 -12.776,3.74 -18.053,7.483 z m 9.424,-52.279 c -39.881,0 -72.212,32.33 -72.212,72.212 0,39.882 32.331,72.212 72.212,72.212 39.882,0 72.212,-32.33 72.212,-72.212 0,-39.882 -32.33,-72.212 -72.212,-72.212 z m 0,123.792 c -28.487,0 -51.58,-23.093 -51.58,-51.58 0,-28.486 23.093,-51.58 51.58,-51.58 28.487,0 51.58,23.094 51.58,51.58 0,28.487 -23.093,51.58 -51.58,51.58 z m 0,-63.739 c 1.549,0 2.804,-1.256 2.804,-2.805 0,-1.548 -1.255,-2.804 -2.804,-2.804 -1.548,0 -2.804,1.256 -2.804,2.804 0.001,1.549 1.256,2.805 2.804,2.805 z m 25.484,-23.834 c -5.276,-3.743 -11.412,-6.355 -18.053,-7.482 v 22.711 c 0.682,0.244 1.347,0.522 1.995,0.83 z m -45.418,26.566 -16.058,-16.059 c -3.744,5.277 -6.355,11.413 -7.482,18.055 h 22.713 c 0.244,-0.682 0.519,-1.348 0.827,-1.996 z m -5.55,45.419 c 5.277,3.743 11.413,6.355 18.055,7.482 v -22.711 c -0.682,-0.244 -1.348,-0.522 -1.996,-0.83 z m 4.721,-28.563 h -22.711 c 1.127,6.642 3.739,12.777 7.482,18.055 l 16.059,-16.06 c -0.307,-0.648 -0.586,-1.313 -0.83,-1.995 z m 8.606,-7.431 c 0,-1.549 -1.255,-2.804 -2.804,-2.804 -1.549,0 -2.804,1.255 -2.804,2.804 0,1.549 1.255,2.804 2.804,2.804 1.548,0 2.804,-1.255 2.804,-2.804 z m 24.315,0 c 0,1.549 1.255,2.804 2.804,2.804 1.549,0 2.804,-1.255 2.804,-2.804 0,-1.549 -1.255,-2.804 -2.804,-2.804 -1.549,0.001 -2.804,1.256 -2.804,2.804 z m 547.493,-6.614 c -3.653,0 -6.615,2.962 -6.615,6.615 0,3.653 2.962,6.615 6.615,6.615 3.653,0 6.615,-2.962 6.615,-6.615 0,-3.653 -2.962,-6.615 -6.615,-6.615 z m -9.424,-13.317 c 0.648,-0.308 1.313,-0.587 1.994,-0.831 v -22.711 c -6.642,1.127 -12.776,3.74 -18.054,7.483 z m 9.424,32.089 c -1.549,0 -2.804,1.256 -2.804,2.805 0,1.548 1.255,2.804 2.804,2.804 1.549,0 2.804,-1.256 2.804,-2.804 -0.001,-1.549 -1.256,-2.805 -2.804,-2.805 z m 7.43,8.607 v 22.711 c 6.642,-1.127 12.775,-3.74 18.053,-7.483 L 821.065,396.08 c -0.648,0.307 -1.312,0.587 -1.994,0.831 z m 13.331,-13.334 c -0.244,0.682 -0.52,1.349 -0.826,1.997 l 16.058,16.058 c 3.744,-5.276 6.354,-11.413 7.482,-18.055 z m 104.874,-91.42 C 927.475,277.153 902.38,271.922 883.264,265.68 749.776,233.438 705.382,243.933 683.102,240.792 c -4.495,-1.199 -8.503,-5.123 -12.179,-7.413 -8.057,-5.019 -16.418,-9.434 -24.358,-14.298 -13.119,-8.036 -73.653,-41.146 -90.02,-47.128 -35.963,-13.142 -92.818,-23.68 -229.815,-12.708 -5.56,-1.528 -8.916,-6.016 -14.826,-7.414 -5.846,-1.383 -11.214,1.693 -15.356,2.648 0.075,4.491 -0.326,8.136 -1.059,11.649 -26.775,11.291 -53.869,19.953 -80.488,31.242 -11.108,4.711 -22.569,9.32 -33.89,14.297 -7.042,3.097 -13.77,7.495 -21.71,10.062 -8.624,2.786 -18.051,1.527 -27.536,3.706 -17.267,3.967 -35.99,4.497 -55.071,4.766 -2.181,3.738 -5.977,7.503 -6.884,12.18 3.305,1.02 4.412,3.298 4.236,7.942 -5.84,8.653 -4.274,20.981 -4.236,34.949 -12.441,6.37 -14.333,29.711 -11.12,48.187 -0.353,1.589 -0.706,3.178 -1.059,4.767 0.665,5.223 2.365,10.742 2.647,16.415 4.672,3.133 9.968,8.167 13.238,12.709 1.595,2.215 2.371,6.033 5.295,6.884 15.631,11.41 94.785,13.768 94.785,13.768 l 4.164,0.228 c -0.637,-3.934 -0.973,-7.969 -0.973,-12.082 0,-41.478 33.625,-75.102 75.102,-75.102 41.478,0 75.102,33.624 75.102,75.102 0,6.966 -0.952,18.277 -2.728,24.678 l 416.073,-0.736 c -2.527,-7.52 -3.898,-15.57 -3.898,-23.941 0,-41.478 33.624,-75.102 75.102,-75.102 41.478,0 75.102,33.624 75.102,75.102 0,7.27 -1.036,14.297 -2.964,20.945 l 4.252,-0.089 c 0,0 32.779,-1.584 40.773,-5.296 7.994,-3.711 11.12,-14.297 11.12,-14.297 l -2.118,-22.24 c 0.001,-0.001 9.847,-47.13 -0.529,-63.015 z M 272.719,237.621 c -24.887,-16.535 -11.702,-35.842 -12.373,-35.781 -0.398,0.354 -0.685,0.636 -0.865,0.827 0.528,-0.559 0.788,-0.82 0.865,-0.827 6.412,-5.714 43.006,-31.271 172.82,-31.474 4.06,22.768 8.12,52.68 12.179,75.446 -52.233,-1.583 -155.045,-0.7 -172.626,-8.191 z m 334.662,8.467 c -11.408,0 -124.969,-0.031 -124.969,-0.031 0,0 -18.331,-48.33 -24.887,-75.157 0.763,0.07 23.298,1.055 23.298,1.055 0,0 44.613,5.079 72.546,14.298 21.976,7.253 65.363,36.403 66.19,38.126 -13.053,0.668 -16.143,10.95 -12.178,21.709 z m 204.26,57.848 c -39.882,0 -72.212,32.33 -72.212,72.212 0,39.882 32.33,72.212 72.212,72.212 39.882,0 72.212,-32.33 72.212,-72.212 0,-39.882 -32.331,-72.212 -72.212,-72.212 z m 0,123.792 c -28.486,0 -51.58,-23.093 -51.58,-51.58 0,-28.486 23.094,-51.58 51.58,-51.58 28.487,0 51.58,23.094 51.58,51.58 0,28.487 -23.093,51.58 -51.58,51.58 z m -19.935,-61.007 -16.059,-16.059 c -3.743,5.277 -6.354,11.413 -7.481,18.055 h 22.713 c 0.244,-0.682 0.519,-1.348 0.827,-1.996 z m 7.777,9.425 c 0,-1.549 -1.256,-2.804 -2.805,-2.804 -1.548,0 -2.804,1.255 -2.804,2.804 0,1.549 1.256,2.804 2.804,2.804 1.55,0 2.805,-1.255 2.805,-2.804 z m 12.158,-12.157 c 1.549,0 2.804,-1.256 2.804,-2.805 0,-1.548 -1.255,-2.804 -2.804,-2.804 -1.549,0 -2.804,1.256 -2.804,2.804 0,1.549 1.255,2.805 2.804,2.805 z m 25.484,-23.834 c -5.277,-3.743 -11.412,-6.355 -18.054,-7.482 v 22.711 c 0.682,0.244 1.347,0.522 1.995,0.83 z m -13.327,35.991 c 0,1.549 1.256,2.804 2.805,2.804 1.548,0 2.804,-1.255 2.804,-2.804 0,-1.549 -1.256,-2.804 -2.804,-2.804 -1.549,0.001 -2.805,1.256 -2.805,2.804 z m -37.642,35.994 c 5.277,3.743 11.413,6.355 18.055,7.482 v -22.711 c -0.683,-0.244 -1.348,-0.522 -1.996,-0.83 z m 4.721,-28.563 h -22.711 c 1.127,6.642 3.739,12.777 7.482,18.055 l 16.059,-16.06 c -0.308,-0.648 -0.586,-1.313 -0.83,-1.995 z m 41.527,-14.86 h 22.711 c -1.127,-6.642 -3.739,-12.776 -7.482,-18.054 l -16.059,16.059 c 0.307,0.648 0.586,1.313 0.83,1.995 z"
           fill="#323232"
           id="path149"
           style="fill:#402e32;fill-opacity:1" />
      </g>
      <path
         style="fill:#402e32;fill-opacity:1;stroke-width:0.352778"
         d="m -7.835892,267.94123 c -0.09361,-0.23731 -6.070713,-14.53835 -13.282446,-31.7801 -7.211738,-17.24176 -13.063926,-31.38531 -13.004864,-31.43011 0.444589,-0.3373 30.309326,-12.61617 30.415572,-12.50534 0.07509,0.0783 2.757681,6.41303 5.961313,14.07713 16.74278,40.05402 20.438677,48.87785 20.553027,49.06965 0.09855,0.1653 -11.875925,5.27996 -29.183577,12.46518 -0.986525,0.40955 -1.328744,0.43385 -1.459025,0.10359 z m 30.467613,-20.31565 c -0.169185,-0.31731 -2.688886,-6.0538 -5.599334,-12.74776 C 14.121938,228.18386 9.3231617,217.15073 6.368444,210.35976 3.413722,203.56878 0.932375,197.77441 0.85434,197.48337 c -0.09875,-0.36831 0.86275,-1.04624 3.162893,-2.2301 4.7671807,-2.45361 6.533917,-3.99683 12.646293,-11.0463 9.178,-10.5851 16.930481,-16.90575 26.111521,-21.28892 5.63584,-2.69063 9.29324,-3.57465 15.68263,-3.79059 8.92003,-0.30146 15.44512,1.14754 31.3515,6.96214 16.293053,5.95594 23.818393,8.14429 39.511113,11.4897 4.07458,0.86863 9.78958,2.22701 12.7,3.0186 2.91042,0.7916 8.62542,2.29391 12.7,3.33846 4.07458,1.04455 8.2708,2.33713 9.32493,2.8724 2.41426,1.22592 4.03748,3.41354 4.8601,6.54994 0.52081,1.98572 0.54611,2.5761 0.17222,4.01986 -0.89518,3.45679 -4.09649,5.02369 -13.51755,6.61624 -11.41014,1.92878 -19.90866,1.89123 -29.59109,-0.13078 -8.4102,-1.75632 -14.7342,-2.48816 -21.74929,-2.51694 -6.826343,-0.028 -9.789613,0.38794 -14.365633,2.01638 -3.40828,1.2129 -9.39341,4.02992 -9.39341,4.42121 0,0.17439 0.24229,0.78561 0.53843,1.35829 l 0.53843,1.04121 2.01921,-1.01221 c 3.36903,-1.68887 8.22366,-3.50834 11.37881,-4.26469 6.267293,-1.50238 18.950393,-0.71847 31.189753,1.92776 8.34612,1.80449 16.75558,1.96716 26.74992,0.51745 9.97777,-1.44731 15.45729,-3.27654 17.38475,-5.80356 1.83068,-2.40015 2.37526,-5.99009 1.39757,-9.21296 -0.28894,-0.95247 -0.52706,-1.83844 -0.52917,-1.96882 -0.002,-0.13039 2.73462,-1.30404 6.0816,-2.60811 3.34698,-1.30408 11.07899,-4.34467 17.18224,-6.75688 12.71708,-5.02621 17.4837,-6.70407 27.35596,-9.62932 9.45192,-2.8007 11.64557,-3.24342 16.22777,-3.27504 3.19072,-0.022 4.22548,0.10909 5.82084,0.73751 2.79483,1.10091 4.37931,2.56494 5.71671,5.28217 1.56712,3.18393 1.59132,5.98089 0.0785,9.07143 -2.10954,4.30956 -9.09044,9.98925 -18.14242,14.76075 -3.3137,1.74673 -28.52754,13.30103 -45.33195,20.77347 -11.51726,5.1214 -23.92634,10.39264 -27.93286,11.86556 -2.16918,0.79746 -5.34418,2.10143 -7.05555,2.89772 -11.30632,5.26073 -18.03435,6.78985 -29.9227,6.80071 -7.47795,0.007 -10.22718,-0.3109 -18.16805,-2.09977 -18.649403,-4.2012 -24.908353,-4.19071 -44.622903,0.0748 -10.50133,2.27209 -26.32954,6.61135 -33.085635,9.07034 -2.166105,0.78839 -2.41935,0.8159 -2.698091,0.29313 z M 168.29115,186.35835 c -1.74611,-1.80306 -4.78733,-3.17396 -9.95489,-4.48743 -2.47385,-0.62879 -4.49107,-1.22291 -4.48271,-1.32026 0.0247,-0.2875 10.41738,-5.12911 14.62507,-6.81335 8.53453,-3.41616 19.98389,-6.76312 26.2356,-7.66938 3.89733,-0.56497 10.37924,-0.25164 13.86414,0.67017 1.48792,0.39357 3.86562,1.24882 5.28378,1.90055 l 2.57848,1.18496 -6.36046,2.1699 c -3.49825,1.19345 -8.97157,3.22353 -12.16294,4.51129 -3.19137,1.28776 -10.72374,4.24687 -16.7386,6.57579 -6.01486,2.32892 -11.09985,4.30346 -11.29997,4.38786 -0.20013,0.0844 -0.9145,-0.41515 -1.5875,-1.1101 z m -25.38891,-8.48613 c -3.00744,-0.84907 -6.89681,-1.83911 -8.64306,-2.20009 l -3.175,-0.65632 1.23472,-0.65648 c 6.72491,-3.57552 17.44413,-7.99251 21.34306,-8.79468 7.62021,-1.5678 16.16193,-1.27268 22.94635,0.7928 l 2.00848,0.61146 -3.48159,1.18471 c -5.8053,1.97541 -11.94857,4.55217 -19.14504,8.0303 -3.76421,1.81928 -7.01858,3.29074 -7.23194,3.26992 -0.21336,-0.0208 -2.84855,-0.73255 -5.85598,-1.58162 z"
         id="path195" />
      <path
         style="fill:#a58e5c;fill-opacity:1;stroke-width:0.117702"
         d="m 187.8301,92.894684 c -2.05276,-0.34806 -4.03542,-1.887073 -4.9398,-3.834439 -0.64425,-1.387243 -0.62308,-0.669467 -0.62528,-21.190525 -0.001,-13.159513 0.037,-19.164756 0.12538,-19.59736 0.19129,-0.936328 0.95619,-2.399167 1.81716,-3.475262 0.42206,-0.527504 1.70522,-1.849577 2.85146,-2.937941 1.76313,-1.674087 3.39419,-3.244315 7.14185,-6.875459 0.44382,-0.430026 0.54969,-0.597872 0.45175,-0.716211 -0.0703,-0.08501 -0.34276,-0.643045 -0.60535,-1.240067 -2.17516,-4.945553 -2.71248,-10.536581 -1.35835,-14.134177 0.59735,-1.586995 1.76931,-3.030113 3.13795,-3.863948 3.14967,-1.918926 8.55757,-1.919372 11.71381,-7.09e-4 3.46188,2.104184 4.68518,6.831534 3.37435,13.039949 -1.56237,7.399796 -5.9982,12.745731 -9.96689,12.011803 -0.4046,-0.07482 -1.13288,-0.335756 -1.6184,-0.579858 -0.48552,-0.244102 -0.92951,-0.463815 -0.98666,-0.48826 -0.0585,-0.02501 -0.0667,0.206494 -0.0188,0.529656 0.26836,1.811326 1.67478,3.10469 3.37608,3.10469 1.16678,0 2.43865,-0.785936 2.96336,-1.83116 0.0994,-0.197938 0.55237,-0.636287 1.00667,-0.974105 0.45429,-0.337825 1.1501,-0.970357 1.54623,-1.405639 0.70649,-0.776323 2.11781,-2.759958 2.11781,-2.976624 0,-0.06049 0.0487,-0.109988 0.10808,-0.109988 0.0594,0 1.16163,1.019589 2.44931,2.265762 1.28769,1.246165 3.3283,3.207295 4.53471,4.358059 3.00151,2.863088 4.16353,4.472976 4.54712,6.299751 0.0931,0.443329 0.13038,6.111448 0.12893,19.59736 -0.002,20.797886 0.0285,19.860354 -0.70038,21.327671 -0.79559,1.601544 -2.16751,2.816421 -3.89061,3.445261 l -0.88011,0.32119 -13.59457,0.0174 c -7.477,0.009 -13.87006,-0.0294 -14.20678,-0.0865 z m 15.64462,-24.736497 c 4.25039,-7.849245 7.74459,-14.336465 7.76487,-14.416043 0.031,-0.121746 -3.31274,-2.153096 -3.53779,-2.149221 -0.0407,6.66e-4 -1.63657,2.897649 -3.54628,6.437663 -1.90972,3.540013 -4.18947,7.763462 -5.06612,9.385449 -6.92318,12.809285 -6.98152,12.920788 -6.81259,13.020016 0.0921,0.05405 0.88241,0.519966 1.75635,1.035328 0.87393,0.515362 1.617,0.941776 1.65127,0.947591 0.0343,0.0057 3.5399,-6.411545 7.79029,-14.260783 z m 7.75994,13.098551 c 1.898,-0.58658 3.33677,-2.177832 3.94145,-4.359192 0.30162,-1.088031 0.30162,-4.208545 0,-5.296583 -0.61418,-2.215609 -2.11231,-3.843044 -4.07618,-4.428002 -0.80105,-0.238591 -2.43137,-0.266274 -3.29566,-0.05596 -2.12655,0.517487 -3.73629,2.197943 -4.37262,4.564695 -0.34911,1.298479 -0.34801,3.820462 0.002,5.135091 0.5914,2.219774 2.03124,3.815517 4.01595,4.450826 0.93181,0.298263 2.8019,0.292886 3.78481,-0.01091 z m -2.72354,-3.506033 c -0.6141,-0.307252 -0.93377,-0.990744 -1.09074,-2.332185 -0.0967,-0.826057 -0.0974,-1.440044 -0.003,-2.29377 0.21214,-1.911481 0.6774,-2.52425 1.91663,-2.52425 1.34882,0 1.76195,0.708611 1.85277,3.177949 0.0864,2.350226 -0.22005,3.525683 -1.03296,3.961652 -0.50788,0.272379 -1.11207,0.276283 -1.64309,0.01063 z M 195.3515,67.233625 c 2.21847,-0.462632 3.92034,-2.20815 4.52832,-4.644457 0.28168,-1.128726 0.28242,-3.90917 0.001,-5.053579 -0.3179,-1.294363 -0.84609,-2.255441 -1.71913,-3.128037 -1.2784,-1.277744 -2.48543,-1.70619 -4.54826,-1.614443 -1.07856,0.04796 -1.29084,0.09675 -2.10642,0.484066 -1.63704,0.777428 -2.76799,2.209489 -3.31654,4.199563 -0.33172,1.20343 -0.30177,4.103204 0.0554,5.363353 0.63133,2.227432 2.12366,3.7842 4.12955,4.307829 0.9031,0.235743 2.09203,0.269992 2.97573,0.0857 z m -2.42523,-3.895817 c -0.59644,-0.596434 -0.81157,-1.463697 -0.81157,-3.271622 0,-1.504803 0.19127,-2.532375 0.58251,-3.129475 0.25265,-0.385597 1.0995,-0.685461 1.64617,-0.582905 0.56988,0.106906 1.15519,0.696817 1.35482,1.365447 0.20822,0.697411 0.21157,3.985857 0.005,4.676149 -0.0832,0.277664 -0.30056,0.671953 -0.48305,0.876195 -0.29621,0.331521 -0.41536,0.376679 -1.11057,0.420945 -0.75777,0.04824 -0.78966,0.03868 -1.18308,-0.354734 z M 203.2139,37.738541 c 0.7963,-0.383698 2.10574,-1.671346 2.84913,-2.801708 1.13673,-1.728462 2.22394,-4.263854 2.79534,-6.518756 0.67307,-2.65614 0.78403,-6.265318 0.24467,-7.958574 -0.76357,-2.397106 -2.17627,-3.833084 -4.47672,-4.550486 -0.77977,-0.243173 -1.11621,-0.275291 -2.88369,-0.275291 -1.7399,0 -2.12324,0.03542 -2.93842,0.27141 -1.31782,0.381517 -2.17662,0.875543 -2.98444,1.716801 -0.80163,0.83482 -1.20266,1.56116 -1.57909,2.860007 -0.23781,0.820617 -0.26554,1.165271 -0.25858,3.214358 0.008,2.448561 0.13801,3.351717 0.82134,5.719518 0.3042,1.054093 1.17294,3.335169 1.3254,3.480171 0.045,0.04279 0.69764,-0.490796 1.45035,-1.185736 1.50602,-1.390452 2.09873,-1.724267 3.42634,-1.929763 1.62842,-0.252057 3.14748,0.31112 4.48463,1.662633 l 0.80499,0.813632 -0.25927,0.516127 c -0.46272,0.921169 -1.49526,2.385553 -2.09631,2.973083 l -0.58694,0.573731 -0.56114,-0.191201 c -1.08951,-0.371232 -2.30145,-0.16818 -3.14467,0.526866 -0.23913,0.197116 -0.43478,0.405268 -0.43478,0.462561 0,0.145554 0.96819,0.697503 1.56379,0.891495 0.67492,0.219826 1.64287,0.112283 2.43807,-0.270878 z"
         id="path405" />
    </g>
  </g>
</svg>
