<?xml version="1.0" encoding="UTF-8" standalone="no"?>
<!-- Created with Inkscape (http://www.inkscape.org/) -->

<svg
   width="60.854168mm"
   height="16.933332mm"
   viewBox="0 0 60.85417 16.933333"
   version="1.1"
   id="svg5"
   inkscape:version="1.1 (c68e22c387, 2021-05-23)"
   sodipodi:docname="logo-long.svg"
   xmlns:inkscape="http://www.inkscape.org/namespaces/inkscape"
   xmlns:sodipodi="http://sodipodi.sourceforge.net/DTD/sodipodi-0.dtd"
   xmlns="http://www.w3.org/2000/svg"
   xmlns:svg="http://www.w3.org/2000/svg">
  <sodipodi:namedview
     id="namedview7"
     pagecolor="#ffffff"
     bordercolor="#666666"
     borderopacity="1.0"
     inkscape:pageshadow="2"
     inkscape:pageopacity="0.0"
     inkscape:pagecheckerboard="0"
     inkscape:document-units="mm"
     showgrid="false"
     fit-margin-top="0"
     fit-margin-left="0"
     fit-margin-right="0"
     fit-margin-bottom="0"
     inkscape:zoom="4.3994184"
     inkscape:cx="100.58148"
     inkscape:cy="26.708076"
     inkscape:window-width="2560"
     inkscape:window-height="1377"
     inkscape:window-x="1912"
     inkscape:window-y="-8"
     inkscape:window-maximized="1"
     inkscape:current-layer="layer1" />
  <defs
     id="defs2" />
  <g
     inkscape:label="Layer 1"
     inkscape:groupmode="layer"
     id="layer1"
     transform="translate(50.006183,44.600652)">
    <g
       id="g6218"
       transform="translate(13.230916,-19.124687)">
      <rect
         style="fill:#f4c329;fill-opacity:1;stroke-width:0.202679"
         id="rect5832"
         width="60.854168"
         height="16.933332"
         x="-63.237099"
         y="-25.475965"
         ry="1.5636537"
         rx="1.5636537" />
      <g
         style="overflow:visible;fill:#402e32;fill-opacity:1"
         id="g163"
         transform="matrix(0.01268955,0,0,0.01268955,-61.290775,-21.962441)">
        <path
           d="m 251.99,369.532 c -3.653,0 -6.615,2.962 -6.615,6.615 0,3.653 2.962,6.615 6.615,6.615 3.653,0 6.615,-2.962 6.615,-6.615 0,-3.653 -2.961,-6.615 -6.615,-6.615 z m 0,18.772 c -1.548,0 -2.804,1.256 -2.804,2.805 0,1.548 1.255,2.804 2.804,2.804 1.549,0 2.804,-1.256 2.804,-2.804 0,-1.549 -1.255,-2.805 -2.804,-2.805 z m 7.431,8.607 v 22.711 c 6.642,-1.127 12.776,-3.74 18.053,-7.483 L 261.415,396.08 c -0.648,0.307 -1.312,0.587 -1.994,0.831 z m 12.505,-11.337 16.058,16.058 c 3.744,-5.276 6.354,-11.413 7.482,-18.055 h -22.713 c -0.245,0.682 -0.52,1.349 -0.827,1.997 z m -0.002,-18.852 c 0.307,0.648 0.585,1.313 0.83,1.995 h 22.712 c -1.127,-6.642 -3.74,-12.776 -7.483,-18.054 z m -29.358,-10.507 c 0.649,-0.308 1.313,-0.587 1.995,-0.831 v -22.711 c -6.642,1.127 -12.776,3.74 -18.053,7.483 z m 9.424,-52.279 c -39.881,0 -72.212,32.33 -72.212,72.212 0,39.882 32.331,72.212 72.212,72.212 39.882,0 72.212,-32.33 72.212,-72.212 0,-39.882 -32.33,-72.212 -72.212,-72.212 z m 0,123.792 c -28.487,0 -51.58,-23.093 -51.58,-51.58 0,-28.486 23.093,-51.58 51.58,-51.58 28.487,0 51.58,23.094 51.58,51.58 0,28.487 -23.093,51.58 -51.58,51.58 z m 0,-63.739 c 1.549,0 2.804,-1.256 2.804,-2.805 0,-1.548 -1.255,-2.804 -2.804,-2.804 -1.548,0 -2.804,1.256 -2.804,2.804 0.001,1.549 1.256,2.805 2.804,2.805 z m 25.484,-23.834 c -5.276,-3.743 -11.412,-6.355 -18.053,-7.482 v 22.711 c 0.682,0.244 1.347,0.522 1.995,0.83 z m -45.418,26.566 -16.058,-16.059 c -3.744,5.277 -6.355,11.413 -7.482,18.055 h 22.713 c 0.244,-0.682 0.519,-1.348 0.827,-1.996 z m -5.55,45.419 c 5.277,3.743 11.413,6.355 18.055,7.482 v -22.711 c -0.682,-0.244 -1.348,-0.522 -1.996,-0.83 z m 4.721,-28.563 h -22.711 c 1.127,6.642 3.739,12.777 7.482,18.055 l 16.059,-16.06 c -0.307,-0.648 -0.586,-1.313 -0.83,-1.995 z m 8.606,-7.431 c 0,-1.549 -1.255,-2.804 -2.804,-2.804 -1.549,0 -2.804,1.255 -2.804,2.804 0,1.549 1.255,2.804 2.804,2.804 1.548,0 2.804,-1.255 2.804,-2.804 z m 24.315,0 c 0,1.549 1.255,2.804 2.804,2.804 1.549,0 2.804,-1.255 2.804,-2.804 0,-1.549 -1.255,-2.804 -2.804,-2.804 -1.549,0.001 -2.804,1.256 -2.804,2.804 z m 547.493,-6.614 c -3.653,0 -6.615,2.962 -6.615,6.615 0,3.653 2.962,6.615 6.615,6.615 3.653,0 6.615,-2.962 6.615,-6.615 0,-3.653 -2.962,-6.615 -6.615,-6.615 z m -9.424,-13.317 c 0.648,-0.308 1.313,-0.587 1.994,-0.831 v -22.711 c -6.642,1.127 -12.776,3.74 -18.054,7.483 z m 9.424,32.089 c -1.549,0 -2.804,1.256 -2.804,2.805 0,1.548 1.255,2.804 2.804,2.804 1.549,0 2.804,-1.256 2.804,-2.804 -0.001,-1.549 -1.256,-2.805 -2.804,-2.805 z m 7.43,8.607 v 22.711 c 6.642,-1.127 12.775,-3.74 18.053,-7.483 L 821.065,396.08 c -0.648,0.307 -1.312,0.587 -1.994,0.831 z m 13.331,-13.334 c -0.244,0.682 -0.52,1.349 -0.826,1.997 l 16.058,16.058 c 3.744,-5.276 6.354,-11.413 7.482,-18.055 z m 104.874,-91.42 C 927.475,277.153 902.38,271.922 883.264,265.68 749.776,233.438 705.382,243.933 683.102,240.792 c -4.495,-1.199 -8.503,-5.123 -12.179,-7.413 -8.057,-5.019 -16.418,-9.434 -24.358,-14.298 -13.119,-8.036 -73.653,-41.146 -90.02,-47.128 -35.963,-13.142 -92.818,-23.68 -229.815,-12.708 -5.56,-1.528 -8.916,-6.016 -14.826,-7.414 -5.846,-1.383 -11.214,1.693 -15.356,2.648 0.075,4.491 -0.326,8.136 -1.059,11.649 -26.775,11.291 -53.869,19.953 -80.488,31.242 -11.108,4.711 -22.569,9.32 -33.89,14.297 -7.042,3.097 -13.77,7.495 -21.71,10.062 -8.624,2.786 -18.051,1.527 -27.536,3.706 -17.267,3.967 -35.99,4.497 -55.071,4.766 -2.181,3.738 -5.977,7.503 -6.884,12.18 3.305,1.02 4.412,3.298 4.236,7.942 -5.84,8.653 -4.274,20.981 -4.236,34.949 -12.441,6.37 -14.333,29.711 -11.12,48.187 -0.353,1.589 -0.706,3.178 -1.059,4.767 0.665,5.223 2.365,10.742 2.647,16.415 4.672,3.133 9.968,8.167 13.238,12.709 1.595,2.215 2.371,6.033 5.295,6.884 15.631,11.41 94.785,13.768 94.785,13.768 l 4.164,0.228 c -0.637,-3.934 -0.973,-7.969 -0.973,-12.082 0,-41.478 33.625,-75.102 75.102,-75.102 41.478,0 75.102,33.624 75.102,75.102 0,6.966 -0.952,18.277 -2.728,24.678 l 416.073,-0.736 c -2.527,-7.52 -3.898,-15.57 -3.898,-23.941 0,-41.478 33.624,-75.102 75.102,-75.102 41.478,0 75.102,33.624 75.102,75.102 0,7.27 -1.036,14.297 -2.964,20.945 l 4.252,-0.089 c 0,0 32.779,-1.584 40.773,-5.296 7.994,-3.711 11.12,-14.297 11.12,-14.297 l -2.118,-22.24 c 0.001,-0.001 9.847,-47.13 -0.529,-63.015 z M 272.719,237.621 c -24.887,-16.535 -11.702,-35.842 -12.373,-35.781 -0.398,0.354 -0.685,0.636 -0.865,0.827 0.528,-0.559 0.788,-0.82 0.865,-0.827 6.412,-5.714 43.006,-31.271 172.82,-31.474 4.06,22.768 8.12,52.68 12.179,75.446 -52.233,-1.583 -155.045,-0.7 -172.626,-8.191 z m 334.662,8.467 c -11.408,0 -124.969,-0.031 -124.969,-0.031 0,0 -18.331,-48.33 -24.887,-75.157 0.763,0.07 23.298,1.055 23.298,1.055 0,0 44.613,5.079 72.546,14.298 21.976,7.253 65.363,36.403 66.19,38.126 -13.053,0.668 -16.143,10.95 -12.178,21.709 z m 204.26,57.848 c -39.882,0 -72.212,32.33 -72.212,72.212 0,39.882 32.33,72.212 72.212,72.212 39.882,0 72.212,-32.33 72.212,-72.212 0,-39.882 -32.331,-72.212 -72.212,-72.212 z m 0,123.792 c -28.486,0 -51.58,-23.093 -51.58,-51.58 0,-28.486 23.094,-51.58 51.58,-51.58 28.487,0 51.58,23.094 51.58,51.58 0,28.487 -23.093,51.58 -51.58,51.58 z m -19.935,-61.007 -16.059,-16.059 c -3.743,5.277 -6.354,11.413 -7.481,18.055 h 22.713 c 0.244,-0.682 0.519,-1.348 0.827,-1.996 z m 7.777,9.425 c 0,-1.549 -1.256,-2.804 -2.805,-2.804 -1.548,0 -2.804,1.255 -2.804,2.804 0,1.549 1.256,2.804 2.804,2.804 1.55,0 2.805,-1.255 2.805,-2.804 z m 12.158,-12.157 c 1.549,0 2.804,-1.256 2.804,-2.805 0,-1.548 -1.255,-2.804 -2.804,-2.804 -1.549,0 -2.804,1.256 -2.804,2.804 0,1.549 1.255,2.805 2.804,2.805 z m 25.484,-23.834 c -5.277,-3.743 -11.412,-6.355 -18.054,-7.482 v 22.711 c 0.682,0.244 1.347,0.522 1.995,0.83 z m -13.327,35.991 c 0,1.549 1.256,2.804 2.805,2.804 1.548,0 2.804,-1.255 2.804,-2.804 0,-1.549 -1.256,-2.804 -2.804,-2.804 -1.549,0.001 -2.805,1.256 -2.805,2.804 z m -37.642,35.994 c 5.277,3.743 11.413,6.355 18.055,7.482 v -22.711 c -0.683,-0.244 -1.348,-0.522 -1.996,-0.83 z m 4.721,-28.563 h -22.711 c 1.127,6.642 3.739,12.777 7.482,18.055 l 16.059,-16.06 c -0.308,-0.648 -0.586,-1.313 -0.83,-1.995 z m 41.527,-14.86 h 22.711 c -1.127,-6.642 -3.739,-12.776 -7.482,-18.054 l -16.059,16.059 c 0.307,0.648 0.586,1.313 0.83,1.995 z"
           fill="#323232"
           id="path149"
           style="fill:#402e32;fill-opacity:1" />
      </g>
      <path
         style="fill:#402e32;fill-opacity:1;stroke-width:0.0172189"
         d="m -61.359437,-10.807493 c -0.0046,-0.01158 -0.296308,-0.709608 -0.648308,-1.551167 -0.352,-0.841559 -0.637642,-1.531897 -0.634759,-1.534084 0.0217,-0.01646 1.479379,-0.615787 1.484565,-0.610378 0.0037,0.0038 0.134601,0.313016 0.290968,0.687096 0.817205,1.955012 0.997599,2.385698 1.00318,2.395059 0.0048,0.0081 -0.579656,0.257712 -1.424432,0.608418 -0.04815,0.01999 -0.06485,0.02118 -0.07121,0.0051 z m 1.487105,-0.991594 c -0.0083,-0.01549 -0.131243,-0.295482 -0.2733,-0.62221 -0.142057,-0.326728 -0.376282,-0.865249 -0.5205,-1.196712 -0.144218,-0.331463 -0.265331,-0.614283 -0.26914,-0.628488 -0.0048,-0.01798 0.04211,-0.05107 0.154379,-0.10885 0.232683,-0.119759 0.318916,-0.195083 0.617257,-0.539163 0.447973,-0.516652 0.826367,-0.825159 1.274488,-1.039099 0.275081,-0.131328 0.453597,-0.174476 0.765459,-0.185016 0.435381,-0.01471 0.753867,0.05601 1.530247,0.339817 0.795254,0.290706 1.162561,0.397518 1.928513,0.560806 0.198878,0.0424 0.477824,0.108699 0.619879,0.147336 0.142056,0.03864 0.421002,0.111964 0.619879,0.162948 0.198878,0.05098 0.403693,0.114074 0.455144,0.1402 0.117839,0.05984 0.197067,0.166613 0.237219,0.319698 0.02542,0.09692 0.02665,0.125738 0.0084,0.196207 -0.04369,0.168724 -0.199947,0.245203 -0.659783,0.322935 -0.556922,0.09414 -0.97173,0.09231 -1.444323,-0.0064 -0.410497,-0.08572 -0.719167,-0.121445 -1.061569,-0.12285 -0.33319,-0.0014 -0.477825,0.01894 -0.701178,0.09842 -0.166356,0.0592 -0.458487,0.196698 -0.458487,0.215797 0,0.0085 0.01183,0.03834 0.02628,0.0663 l 0.02628,0.05082 0.09856,-0.04941 c 0.16444,-0.08243 0.401391,-0.17124 0.555392,-0.208157 0.305903,-0.07333 0.924957,-0.03507 1.522353,0.09409 0.407369,0.08808 0.817829,0.09601 1.305647,0.02526 0.487009,-0.07064 0.754461,-0.159926 0.848539,-0.283268 0.08935,-0.11715 0.115935,-0.292373 0.06821,-0.449679 -0.0141,-0.04649 -0.02573,-0.08973 -0.02583,-0.0961 -9.8e-5,-0.0064 0.133475,-0.06365 0.296839,-0.1273 0.163364,-0.06365 0.540759,-0.212061 0.838654,-0.329799 0.620713,-0.245326 0.853369,-0.327222 1.335228,-0.470001 0.461342,-0.136701 0.568413,-0.15831 0.792067,-0.159853 0.155737,-0.0011 0.206243,0.0053 0.284112,0.036 0.136414,0.05373 0.213751,0.125193 0.279029,0.25782 0.07649,0.155405 0.07767,0.291923 0.0038,0.442771 -0.102965,0.210347 -0.443698,0.487569 -0.88552,0.720463 -0.16174,0.08526 -1.392411,0.649215 -2.212624,1.01394 -0.562151,0.249972 -1.16783,0.507258 -1.363386,0.579151 -0.105876,0.03892 -0.260846,0.102569 -0.344377,0.141435 -0.551854,0.256773 -0.880245,0.331409 -1.460508,0.331939 -0.364994,3.42e-4 -0.499183,-0.01517 -0.886772,-0.102489 -0.910265,-0.205058 -1.215761,-0.204546 -2.178016,0.0037 -0.512563,0.1109 -1.285128,0.322696 -1.614889,0.442718 -0.105726,0.03848 -0.118087,0.03982 -0.131692,0.01431 z m 7.109547,-2.990415 c -0.08523,-0.08801 -0.233667,-0.154919 -0.485892,-0.219029 -0.120747,-0.03069 -0.219207,-0.05969 -0.218799,-0.06444 0.0012,-0.01403 0.508466,-0.250349 0.713841,-0.332556 0.416565,-0.16674 0.975401,-0.330103 1.280543,-0.374337 0.190227,-0.02758 0.506605,-0.01228 0.6767,0.03271 0.07262,0.01921 0.188679,0.06095 0.257898,0.09276 l 0.125854,0.05784 -0.31045,0.105912 c -0.170747,0.05825 -0.437896,0.157338 -0.593665,0.220193 -0.155769,0.06286 -0.523419,0.207287 -0.817001,0.32096 -0.293581,0.113673 -0.541777,0.210049 -0.551544,0.214169 -0.0098,0.0041 -0.04464,-0.02026 -0.07749,-0.05418 z m -1.239217,-0.414203 c -0.146792,-0.04144 -0.336629,-0.08977 -0.421863,-0.107385 l -0.154969,-0.03203 0.06027,-0.03204 c 0.328239,-0.174519 0.851438,-0.39011 1.041742,-0.429263 0.371938,-0.07652 0.788854,-0.06212 1.119997,0.0387 l 0.09803,0.02984 -0.169934,0.05783 c -0.283354,0.09642 -0.583203,0.222189 -0.934458,0.391954 -0.183729,0.0888 -0.342573,0.160619 -0.352987,0.159603 -0.01041,-0.001 -0.139035,-0.03576 -0.285826,-0.0772 z"
         id="path195" />
      <path
         style="fill:#a58e5c;fill-opacity:1;stroke-width:0.00574496"
         d="m -51.809101,-19.351406 c -0.100194,-0.01699 -0.196967,-0.09211 -0.241109,-0.187157 -0.03144,-0.06771 -0.03041,-0.03268 -0.03052,-1.034296 -4.9e-5,-0.642308 0.0018,-0.93542 0.0061,-0.956535 0.0093,-0.0457 0.04667,-0.117102 0.0887,-0.169625 0.0206,-0.02575 0.08323,-0.09028 0.139178,-0.143399 0.08606,-0.08171 0.165668,-0.158354 0.348589,-0.335587 0.02166,-0.02099 0.02683,-0.02918 0.02205,-0.03496 -0.0034,-0.0041 -0.01673,-0.03139 -0.02955,-0.06053 -0.106168,-0.241389 -0.132395,-0.514284 -0.0663,-0.689881 0.02916,-0.07746 0.08636,-0.147897 0.153161,-0.188596 0.153734,-0.09366 0.41769,-0.09368 0.571744,-3.5e-5 0.168972,0.102704 0.228681,0.333443 0.1647,0.636472 -0.07626,0.361179 -0.292769,0.622111 -0.486478,0.586288 -0.01975,-0.0037 -0.0553,-0.01639 -0.07899,-0.0283 -0.0237,-0.01192 -0.04537,-0.02264 -0.04816,-0.02383 -0.0029,-0.0012 -0.0033,0.01008 -9.18e-4,0.02585 0.0131,0.08841 0.08174,0.151538 0.164785,0.151538 0.05695,0 0.119029,-0.03836 0.144639,-0.08938 0.0049,-0.0097 0.02696,-0.03106 0.04913,-0.04755 0.02217,-0.01649 0.05614,-0.04736 0.07547,-0.06861 0.03448,-0.03789 0.103369,-0.134712 0.103369,-0.145287 0,-0.003 0.0024,-0.0054 0.0053,-0.0054 0.0029,0 0.0567,0.04977 0.119549,0.110591 0.06285,0.06082 0.162453,0.156546 0.221337,0.212714 0.146502,0.139745 0.203219,0.218323 0.221942,0.307487 0.0045,0.02164 0.0064,0.298296 0.0063,0.956535 -9.8e-5,1.015132 0.0014,0.969371 -0.03419,1.04099 -0.03883,0.07817 -0.105795,0.137468 -0.189899,0.168161 l -0.04296,0.01568 -0.663543,8.5e-4 c -0.364947,4.39e-4 -0.676989,-0.0014 -0.693424,-0.0042 z m 0.763604,-1.207373 c 0.207459,-0.383117 0.378009,-0.699754 0.378998,-0.703638 0.0015,-0.0059 -0.161692,-0.105092 -0.172677,-0.104902 -0.002,3.2e-5 -0.07988,0.141432 -0.173092,0.314218 -0.09321,0.172786 -0.204485,0.37893 -0.247274,0.458098 -0.337916,0.625213 -0.340763,0.630656 -0.332518,0.635499 0.0045,0.0026 0.04307,0.02538 0.08573,0.05053 0.04266,0.02516 0.07893,0.04597 0.0806,0.04625 0.0017,2.78e-4 0.17278,-0.312944 0.380239,-0.69606 z m 0.378758,0.639332 c 0.09264,-0.02863 0.162865,-0.106299 0.19238,-0.212769 0.01472,-0.05311 0.01472,-0.205417 0,-0.258523 -0.02998,-0.108143 -0.103101,-0.187577 -0.198956,-0.216128 -0.0391,-0.01165 -0.118674,-0.013 -0.160859,-0.0027 -0.103796,0.02526 -0.182366,0.10728 -0.213425,0.2228 -0.01704,0.06338 -0.01699,0.186475 9.7e-5,0.250641 0.02887,0.108346 0.09914,0.186233 0.196016,0.217242 0.04548,0.01456 0.136759,0.0143 0.184735,-5.33e-4 z m -0.132935,-0.171127 c -0.02997,-0.015 -0.04558,-0.04836 -0.05324,-0.113833 -0.0047,-0.04032 -0.0048,-0.07029 -1.46e-4,-0.111957 0.01035,-0.0933 0.03306,-0.123207 0.09355,-0.123207 0.06583,0 0.086,0.03459 0.09043,0.155113 0.0042,0.114713 -0.01074,0.172087 -0.05042,0.193366 -0.02479,0.01329 -0.05428,0.01348 -0.0802,5.19e-4 z m -0.642312,-0.513332 c 0.108282,-0.02258 0.191349,-0.107779 0.221024,-0.226694 0.01375,-0.05509 0.01378,-0.190804 4.9e-5,-0.246662 -0.01552,-0.06318 -0.0413,-0.110086 -0.08391,-0.152677 -0.0624,-0.06237 -0.121312,-0.08328 -0.221998,-0.0788 -0.05264,0.0023 -0.06301,0.0047 -0.102813,0.02363 -0.0799,0.03795 -0.135103,0.107844 -0.161878,0.204978 -0.01619,0.05874 -0.01473,0.200275 0.0027,0.261782 0.03082,0.108719 0.103655,0.184704 0.201561,0.210262 0.04408,0.01151 0.102111,0.01318 0.145244,0.0042 z m -0.118374,-0.190153 c -0.02911,-0.02911 -0.03961,-0.07144 -0.03961,-0.159686 0,-0.07345 0.0093,-0.123603 0.02843,-0.152747 0.01233,-0.01882 0.05367,-0.03346 0.08035,-0.02845 0.02781,0.0052 0.05638,0.03401 0.06613,0.06665 0.01016,0.03404 0.01033,0.194547 2.44e-4,0.22824 -0.0041,0.01355 -0.01467,0.0328 -0.02358,0.04277 -0.01446,0.01618 -0.02027,0.01839 -0.05421,0.02055 -0.03699,0.0024 -0.03854,0.0019 -0.05775,-0.01731 z m 0.502132,-1.249484 c 0.03887,-0.01873 0.10278,-0.08158 0.139065,-0.13675 0.05548,-0.08437 0.108549,-0.208116 0.136439,-0.318176 0.03285,-0.129645 0.03827,-0.305807 0.01194,-0.388453 -0.03727,-0.117002 -0.106223,-0.187091 -0.218506,-0.222107 -0.03806,-0.01187 -0.05448,-0.01344 -0.140751,-0.01344 -0.08492,0 -0.103634,0.0017 -0.143423,0.01325 -0.06432,0.01862 -0.106239,0.04274 -0.145668,0.0838 -0.03913,0.04075 -0.0587,0.0762 -0.07707,0.139595 -0.01161,0.04005 -0.01296,0.05688 -0.01262,0.156891 3.91e-4,0.119513 0.0067,0.163595 0.04009,0.279166 0.01485,0.05145 0.05725,0.162787 0.06469,0.169865 0.0022,0.0021 0.03405,-0.02396 0.07079,-0.05787 0.07351,-0.06787 0.102437,-0.08416 0.167237,-0.09419 0.07948,-0.0123 0.153627,0.01519 0.218892,0.08115 l 0.03929,0.03971 -0.01265,0.02519 c -0.02259,0.04496 -0.07298,0.116438 -0.10232,0.145114 l -0.02865,0.028 -0.02739,-0.0093 c -0.05318,-0.01812 -0.112332,-0.0082 -0.153489,0.02572 -0.01167,0.0096 -0.02122,0.01978 -0.02122,0.02258 0,0.0071 0.04726,0.03404 0.07633,0.04351 0.03294,0.01073 0.08019,0.0055 0.119,-0.01322 z"
         id="path405" />
      <text
         xml:space="preserve"
         style="font-style:normal;font-variant:normal;font-weight:normal;font-stretch:normal;font-size:8.46667px;line-height:1.25;font-family:sans-serif;-inkscape-font-specification:'sans-serif, Normal';font-variant-ligatures:normal;font-variant-caps:normal;font-variant-numeric:normal;font-variant-east-asian:normal;fill:#402e32;fill-opacity:1;stroke:none;stroke-width:0.264583"
         x="-48.101383"
         y="-13.569812"
         id="text3042"><tspan
           sodipodi:role="line"
           id="tspan3040"
           style="font-style:normal;font-variant:normal;font-weight:normal;font-stretch:normal;font-size:8.46667px;font-family:sans-serif;-inkscape-font-specification:'sans-serif, Normal';font-variant-ligatures:normal;font-variant-caps:normal;font-variant-numeric:normal;font-variant-east-asian:normal;fill:#402e32;fill-opacity:1;stroke-width:0.264583"
           x="-48.101383"
           y="-13.569812">MAX-CARS</tspan></text>
    </g>
  </g>
</svg>
